<mxfile host="app.diagrams.net" modified="2023-06-04T07:20:14.969Z" agent="Mozilla/5.0 (Windows NT 10.0; Win64; x64) AppleWebKit/537.36 (KHTML, like Gecko) Chrome/114.0.0.0 Safari/537.36" version="21.2.1" etag="9n-r631F9jf4j_yJ9sHj" type="github">
  <diagram name="第 1 页" id="Zxne3HcXPv2P-k0LGQbM">
    <mxGraphModel>
      <root>
        <mxCell id="0" />
        <mxCell id="1" parent="0" />
      </root>
    </mxGraphModel>
  </diagram>
</mxfile>
